<svg width="20" height="20" viewBox="0 0 20 20" fill="none" xmlns="http://www.w3.org/2000/svg">
<path d="M3 8.2772L3 14.8077C3 15.7423 3.7835 16.5 4.75 16.5L15.25 16.5C16.2165 16.5 17 15.7423 17 14.8077L17 8.2772M3 8.2772C2.44772 8.2772 2 7.82949 2 7.2772L2 4.5C2 3.94771 2.44772 3.5 3 3.5L17 3.5C17.5523 3.5 18 3.94772 18 4.5L18 7.2772C18 7.82949 17.5523 8.2772 17 8.2772M3 8.2772L6.5 8.2772L8 7.2772L11.75 7.2772L13.5 8.2772L17 8.2772M7.5 12.5172L12.5 12.5172" stroke="#8F95B2" stroke-width="1.5" stroke-linecap="round" stroke-linejoin="round"/>
</svg>
