<svg width="190" height="48" viewBox="0 0 190 48" fill="none" xmlns="http://www.w3.org/2000/svg">
<path d="M77.1732 6.38071C77.1732 9.99578 74.7281 12.4068 71.0931 12.4068H66.4789V0.351807H71.0931C74.7281 0.351807 77.1732 2.76279 77.1732 6.38071ZM75.1408 6.38071C75.1408 3.90139 73.487 2.2134 71.0931 2.2134H68.4914V10.548H71.0931C73.5041 10.548 75.1408 8.86002 75.1408 6.38071Z" fill="#0172CB"/>
<path d="M79.4106 0.351807H81.4259V12.4068H79.4106V0.351807Z" fill="#0172CB"/>
<path d="M94.8046 5.55236V10.6676C93.461 12.0111 91.8784 12.6487 89.8972 12.6487C86.1426 12.6487 83.6633 10.1694 83.6633 6.3807C83.6633 2.69447 86.265 0.112671 90.0338 0.112671C91.756 0.112671 93.3216 0.750299 94.5114 1.97145L93.2191 3.26378C92.4107 2.45537 91.1867 1.97145 90.0168 1.97145C87.452 1.97145 85.6787 3.74483 85.6787 6.3807C85.6787 9.06782 87.3325 10.79 89.8972 10.79C91.1041 10.79 92.0833 10.4797 92.9458 9.80792V7.32858H89.5699V5.55521H94.8046V5.55236Z" fill="#0172CB"/>
<path d="M97.1984 0.351807H99.2138V12.4068H97.1984V0.351807Z" fill="#0172CB"/>
<path d="M110.819 2.21343H106.911V12.4068H104.895V2.21343H100.987V0.354645H110.819V2.21343Z" fill="#0172CB"/>
<path d="M119.891 9.91039H113.415L112.313 12.4068H110.144L115.553 0.351807H117.79L123.179 12.4068H120.992L119.891 9.91039ZM114.192 8.08577H119.117L116.654 2.38704L114.192 8.08577Z" fill="#0172CB"/>
<path d="M124.781 0.351807H126.797V10.5281H133.15V12.4039H124.781V0.351807Z" fill="#0172CB"/>
<path d="M66.4789 28.5551L67.5292 27.0407C68.5455 27.8833 70.0769 28.4013 71.5599 28.4013C73.3162 28.4013 74.452 27.6954 74.452 26.6109C74.452 25.6118 73.5212 25.0795 71.4375 24.8033C68.1669 24.3564 66.7721 23.2719 66.7721 21.1513C66.7721 19.1359 68.6849 17.707 71.4375 17.707C73.0401 17.707 74.674 18.2592 75.898 19.2043L74.8818 20.6332C73.8827 19.8761 72.6416 19.4804 71.4546 19.4804C69.8691 19.4804 68.7504 20.1863 68.7504 21.1684C68.7504 22.1333 69.6129 22.6827 71.6425 22.9759C75.0526 23.474 76.4815 24.5073 76.4815 26.5568C76.4815 28.7771 74.5174 30.243 71.5571 30.243C69.7353 30.243 67.8908 29.6396 66.4789 28.5551Z" fill="#0172CB"/>
<path d="M78.568 17.949H80.5833V30.004H78.568V17.949Z" fill="#0172CB"/>
<path d="M93.9619 23.1495V28.2647C92.6184 29.6083 91.0357 30.2459 89.0545 30.2459C85.3 30.2459 82.8207 27.7666 82.8207 23.9779C82.8207 20.2916 85.4224 17.7098 89.1912 17.7098C90.9133 17.7098 92.4789 18.3474 93.6687 19.5686L92.3764 20.8609C91.568 20.0525 90.344 19.5686 89.1741 19.5686C86.6094 19.5686 84.836 21.342 84.836 23.9779C84.836 26.665 86.4898 28.3871 89.0545 28.3871C90.2615 28.3871 91.2407 28.0768 92.1032 27.4051V24.9258H88.7272V23.1524H93.9619V23.1495Z" fill="#0172CB"/>
<path d="M106.686 17.949V30.004H104.861L98.3513 21.3933L98.3684 25.2332V30.004H96.353V17.949H98.1776L104.688 26.5597L104.671 22.9617V17.9518H106.686V17.949Z" fill="#0172CB"/>
<path d="M118.032 27.5046H111.556L110.455 30.001H108.286L113.694 17.946H115.931L121.32 30.001H119.134L118.032 27.5046ZM112.333 25.68H117.258L114.796 19.9813L112.333 25.68Z" fill="#0172CB"/>
<path d="M130.483 19.8078H126.575V30.0011H124.559V19.8078H120.651V17.949H130.483V19.8078Z" fill="#0172CB"/>
<path d="M132.1 25.0083V17.949H134.098V24.9742C134.098 27.0578 135.339 28.3843 137.266 28.3843C139.193 28.3843 140.434 27.0578 140.434 24.9742V17.949H142.432V25.0083C142.432 28.2278 140.434 30.2431 137.266 30.2431C134.098 30.2431 132.1 28.2278 132.1 25.0083Z" fill="#0172CB"/>
<path d="M149.697 25.885H147.252V30.001H145.236V17.946H150.884C153.466 17.946 155.154 19.5315 155.154 21.9226C155.154 23.9209 153.967 25.3498 152.037 25.7626L155.706 29.9982H153.192L149.697 25.885ZM150.87 19.8077H147.237V24.0433H150.87C152.298 24.0433 153.161 23.2519 153.161 21.9255C153.158 20.6161 152.298 19.8077 150.87 19.8077Z" fill="#0172CB"/>
<path d="M166.625 28.1593V30.001H157.653V17.946H166.523V19.7707H159.651V22.9901H166.229V24.7805H159.651V28.1565H166.625V28.1593Z" fill="#0172CB"/>
<path d="M76.2254 45.1161H69.7495L68.6479 47.6125H66.4789L71.8873 35.5575H74.1246L79.5131 47.6125H77.327L76.2254 45.1161ZM70.5266 43.2915H75.4511L72.9889 37.5928L70.5266 43.2915Z" fill="#0172CB"/>
<path d="M91.0699 40.761V45.8762C89.7264 47.2197 88.1437 47.8573 86.1625 47.8573C82.408 47.8573 79.9286 45.378 79.9286 41.5893C79.9286 37.9031 82.5304 35.3213 86.2992 35.3213C88.0213 35.3213 89.5869 35.9589 90.7767 37.1801L89.4844 38.4724C88.676 37.664 87.452 37.1801 86.2821 37.1801C83.7174 37.1801 81.944 38.9534 81.944 41.5893C81.944 44.2764 83.5978 45.9986 86.1625 45.9986C87.3694 45.9986 88.3486 45.6883 89.2111 45.0165V42.5372H85.8352V40.7638H91.0699V40.761Z" fill="#0172CB"/>
<path d="M103.879 40.761V45.8762C102.536 47.2197 100.953 47.8573 98.9718 47.8573C95.2173 47.8573 92.738 45.378 92.738 41.5893C92.738 37.9031 95.3397 35.3213 99.1085 35.3213C100.831 35.3213 102.396 35.9589 103.586 37.1801L102.294 38.4724C101.485 37.664 100.261 37.1801 99.0914 37.1801C96.5267 37.1801 94.7533 38.9534 94.7533 41.5893C94.7533 44.2764 96.4071 45.9986 98.9718 45.9986C100.179 45.9986 101.158 45.6883 102.02 45.0165V42.5372H98.6445V40.7638H103.879V40.761Z" fill="#0172CB"/>
<path d="M110.731 43.4994H108.286V47.6154H106.27V35.5604H111.918C114.5 35.5604 116.188 37.1459 116.188 39.537C116.188 41.5353 115.001 42.9642 113.071 43.3769L116.74 47.6126H114.226L110.731 43.4994ZM111.904 37.4192H108.271V41.6548H111.904C113.333 41.6548 114.195 40.8635 114.195 39.537C114.192 38.2304 113.333 37.4192 111.904 37.4192Z" fill="#0172CB"/>
<path d="M127.659 45.7708V47.6125H118.687V35.5575H127.557V37.3821H120.685V40.6015H127.263V42.392H120.685V45.7679H127.659V45.7708Z" fill="#0172CB"/>
<path d="M140.383 40.761V45.8762C139.039 47.2197 137.457 47.8573 135.476 47.8573C131.721 47.8573 129.242 45.378 129.242 41.5893C129.242 37.9031 131.843 35.3213 135.612 35.3213C137.334 35.3213 138.9 35.9589 140.09 37.1801L138.797 38.4724C137.989 37.664 136.765 37.1801 135.595 37.1801C133.03 37.1801 131.257 38.9534 131.257 41.5893C131.257 44.2764 132.911 45.9986 135.476 45.9986C136.682 45.9986 137.662 45.6883 138.524 45.0165V42.5372H135.148V40.7638H140.383V40.761Z" fill="#0172CB"/>
<path d="M150.921 45.1161H144.445L143.343 47.6125H141.174L146.583 35.5575H148.82L154.209 47.6125H152.022L150.921 45.1161ZM145.222 43.2915H150.147L147.684 37.5928L145.222 43.2915Z" fill="#0172CB"/>
<path d="M163.371 37.4192H159.46V47.6126H157.445V37.4192H153.537V35.5604H163.369V37.4192H163.371Z" fill="#0172CB"/>
<path d="M164.126 41.5865C164.126 37.8319 166.622 35.3013 170.343 35.3013C174.046 35.3013 176.542 37.8319 176.542 41.5865C176.542 45.341 174.046 47.8716 170.343 47.8716C166.625 47.8716 164.126 45.341 164.126 41.5865ZM174.51 41.5865C174.51 38.9506 172.822 37.1601 170.343 37.1601C167.846 37.1601 166.158 38.9506 166.158 41.5865C166.158 44.2223 167.846 46.0128 170.343 46.0128C172.822 46.0128 174.51 44.2223 174.51 41.5865Z" fill="#0172CB"/>
<path d="M183.24 43.4994H180.795V47.6154H178.78V35.5604H184.427C187.009 35.5604 188.697 37.1459 188.697 39.537C188.697 41.5353 187.51 42.9642 185.58 43.3769L189.249 47.6126H186.736L183.24 43.4994ZM184.41 37.4192H180.778V41.6548H184.41C185.839 41.6548 186.702 40.8635 186.702 39.537C186.702 38.2304 185.839 37.4192 184.41 37.4192Z" fill="#0172CB"/>
<path d="M57.0141 0L57.0141 48" stroke="#0172CB"/>
<path d="M47.5854 39.9121H43.9527C43.8558 39.9121 43.7792 39.8333 43.7792 39.7386V30.1364C43.7792 30.0395 43.858 29.9628 43.9527 29.9628H47.5854C47.6823 29.9628 47.7589 30.0417 47.7589 30.1364V39.7386C47.7589 39.8355 47.6823 39.9121 47.5854 39.9121Z" fill="#0172CB"/>
<path d="M23.7048 37.9223H20.0721C19.9752 37.9223 19.8986 37.8434 19.8986 37.7487V34.1161C19.8986 34.0192 19.9775 33.9426 20.0721 33.9426H23.7048C23.8017 33.9426 23.8783 34.0214 23.8783 34.1161V37.7487C23.8806 37.8456 23.8017 37.9223 23.7048 37.9223Z" fill="#0172CB"/>
<path d="M13.7555 18.0237H10.1228C10.0259 18.0237 9.94928 17.9448 9.94928 17.8501V14.2175C9.94928 14.1206 10.0282 14.0439 10.1228 14.0439H13.7555C13.8524 14.0439 13.929 14.1228 13.929 14.2175V17.8501C13.929 17.9448 13.8524 18.0237 13.7555 18.0237Z" fill="#0172CB"/>
<path d="M39.6259 18.0237H35.9932C35.8963 18.0237 35.8197 17.9448 35.8197 17.8501V14.2175C35.8197 14.1206 35.8986 14.0439 35.9932 14.0439H39.6259C39.7228 14.0439 39.7994 14.1228 39.7994 14.2175V17.8501C39.7994 17.9448 39.7205 18.0237 39.6259 18.0237Z" fill="#0172CB"/>
<path d="M47.5854 47.8716H43.9527C43.8558 47.8716 43.7792 47.7949 43.7792 47.698V44.0654C43.7792 43.9685 43.858 43.8918 43.9527 43.8918H47.5854C47.6823 43.8918 47.7589 43.9685 47.7589 44.0654V47.698C47.7589 47.7949 47.6823 47.8716 47.5854 47.8716Z" fill="#0172CB"/>
<path d="M3.97972 43.7972V34.1026C3.97972 34.0147 3.90761 33.9426 3.81972 33.9426H0.16C0.0721127 33.9426 0 34.0147 0 34.1026V47.7138C0 47.8017 0.0721127 47.8738 0.16 47.8738H23.7206C23.8085 47.8738 23.8806 47.8017 23.8806 47.7138V44.0519C23.8806 43.964 23.8085 43.8918 23.7206 43.8918H4.07437C4.02254 43.8918 3.97972 43.849 3.97972 43.7972Z" fill="#0172CB"/>
<path d="M0 0.27269V29.8028C0 29.8907 0.0721127 29.9628 0.16 29.9628H23.7206C23.8085 29.9628 23.8806 29.8907 23.8806 29.8028V0.27269C23.8806 0.184802 23.8085 0.112671 23.7206 0.112671H0.16C0.0721127 0.112671 0 0.184802 0 0.27269ZM19.8039 25.9831H4.07437C4.02254 25.9831 3.97972 25.9403 3.97972 25.8884V4.18931C3.97972 4.13748 4.02254 4.09465 4.07437 4.09465H19.8039C19.8558 4.09465 19.8986 4.13748 19.8986 4.18931V25.8884C19.8986 25.9403 19.8558 25.9831 19.8039 25.9831Z" fill="#0172CB"/>
<path d="M27.8603 22.1611V47.7116C27.8603 47.7995 27.9324 47.8716 28.0203 47.8716H31.6823C31.7701 47.8716 31.8423 47.7995 31.8423 47.7116V26.0778C31.8423 26.0259 31.8851 25.9831 31.9369 25.9831H47.6011C47.689 25.9831 47.7611 25.911 47.7611 25.8231V22.1611C47.7611 22.0733 47.689 22.0011 47.6011 22.0011H28.0203C27.9301 22.0034 27.8603 22.0733 27.8603 22.1611Z" fill="#0172CB"/>
<path d="M27.8603 0.27269V17.8637C27.8603 17.9515 27.9324 18.0237 28.0203 18.0237H31.6823C31.7701 18.0237 31.8423 17.9515 31.8423 17.8637V4.18931C31.8423 4.13748 31.8851 4.09465 31.9369 4.09465H43.6845C43.7363 4.09465 43.7792 4.13748 43.7792 4.18931V17.8637C43.7792 17.9515 43.8513 18.0237 43.9392 18.0237H47.6011C47.689 18.0237 47.7611 17.9515 47.7611 17.8637V0.27269C47.7611 0.184802 47.689 0.112671 47.6011 0.112671H28.0203C27.9301 0.112671 27.8603 0.184802 27.8603 0.27269Z" fill="#0172CB"/>
</svg>
