<svg width="189" height="189" viewBox="0 0 189 189" fill="none" xmlns="http://www.w3.org/2000/svg">
<g opacity="0.03">
<path d="M104.724 145.036H88.675C88.2469 145.036 87.9084 144.687 87.9084 144.269V128.221C87.9084 127.793 88.2569 127.454 88.675 127.454H104.724C105.152 127.454 105.49 127.803 105.49 128.221V144.269C105.5 144.687 105.152 145.036 104.724 145.036Z" fill="#0172CB"/>
<path d="M60.7693 57.1175H44.7207C44.2927 57.1175 43.9542 56.7691 43.9542 56.3509V40.3024C43.9542 39.8744 44.3026 39.5359 44.7207 39.5359H60.7693C61.1973 39.5359 61.5358 39.8843 61.5358 40.3024V56.3509C61.5358 56.779 61.1973 57.1175 60.7693 57.1175Z" fill="#0172CB"/>
<path d="M175.06 57.1175H159.012C158.583 57.1175 158.245 56.7691 158.245 56.3509V40.3024C158.245 39.8744 158.593 39.5359 159.012 39.5359H175.06C175.488 39.5359 175.827 39.8843 175.827 40.3024V56.3509C175.827 56.779 175.478 57.1175 175.06 57.1175Z" fill="#0172CB"/>
<path d="M17.5817 170.99V128.161C17.5817 127.773 17.2631 127.454 16.8748 127.454H0.706851C0.318581 127.454 0 127.773 0 128.161V188.293C0 188.681 0.318581 189 0.706851 189H104.793C105.181 189 105.5 188.681 105.5 188.293V172.115C105.5 171.727 105.181 171.408 104.793 171.408H17.9998C17.7708 171.408 17.5817 171.219 17.5817 170.99Z" fill="#0172CB"/>
<path d="M0 -21.2931V109.166C0 109.554 0.318581 109.873 0.706851 109.873H104.793C105.181 109.873 105.5 109.554 105.5 109.166V-21.2931C105.5 -21.6814 105.181 -22 104.793 -22H0.706851C0.318581 -22 0 -21.6814 0 -21.2931ZM87.4902 92.2908H17.9998C17.7708 92.2908 17.5817 92.1017 17.5817 91.8727V-4.00019C17.5817 -4.22917 17.7708 -4.41832 17.9998 -4.41832H87.4902C87.7192 -4.41832 87.9084 -4.22917 87.9084 -4.00019V91.8628C87.9084 92.1017 87.7192 92.2908 87.4902 92.2908Z" fill="#0172CB"/>
<path d="M123.082 75.4061V188.283C123.082 188.671 123.4 188.99 123.789 188.99H139.967C140.355 188.99 140.673 188.671 140.673 188.283V92.709C140.673 92.48 140.863 92.2909 141.091 92.2909H210.293C210.681 92.2909 211 91.9723 211 91.584V75.4061C211 75.0178 210.681 74.6992 210.293 74.6992H123.789C123.39 74.6992 123.082 75.0178 123.082 75.4061Z" fill="#0172CB"/>
<path d="M123.082 -21.2931V56.4206C123.082 56.8089 123.4 57.1275 123.789 57.1275H139.967C140.355 57.1275 140.673 56.8089 140.673 56.4206V-4.00019C140.673 -4.22917 140.863 -4.41833 141.091 -4.41833H192.99C193.219 -4.41833 193.408 -4.22917 193.408 -4.00019V56.4107C193.408 56.799 193.727 57.1175 194.115 57.1175H210.293C210.681 57.1175 211 56.799 211 56.4107V-21.2931C211 -21.6814 210.681 -22 210.293 -22H123.789C123.39 -22 123.082 -21.6814 123.082 -21.2931Z" fill="#0172CB"/>
</g>
</svg>
