<svg width="24" height="24" viewBox="0 0 24 24" fill="none" xmlns="http://www.w3.org/2000/svg">
<path d="M21.5999 16.56V17.31C22.0141 17.31 22.3499 16.9742 22.3499 16.56H21.5999ZM21.5999 11.28H22.3499C22.3499 10.8658 22.0141 10.53 21.5999 10.53V11.28ZM7.27433 6.32913C6.92591 6.55312 6.82503 7.01716 7.04902 7.36558C7.27301 7.71401 7.73704 7.81489 8.08547 7.5909L7.27433 6.32913ZM14.3999 2.64001L14.9919 2.17956C14.7536 1.87315 14.3209 1.79922 13.9943 2.00913L14.3999 2.64001ZM17.1679 7.42047C17.4222 7.74743 17.8934 7.80633 18.2204 7.55203C18.5473 7.29773 18.6062 6.82652 18.3519 6.49956L17.1679 7.42047ZM21.5999 15.81H18.4799V17.31H21.5999V15.81ZM18.4799 12.03H21.5999V10.53H18.4799V12.03ZM20.8499 11.28V16.56H22.3499V11.28H20.8499ZM16.5899 13.92C16.5899 12.8762 17.4361 12.03 18.4799 12.03V10.53C16.6077 10.53 15.0899 12.0478 15.0899 13.92H16.5899ZM18.4799 15.81C17.4361 15.81 16.5899 14.9638 16.5899 13.92H15.0899C15.0899 15.7923 16.6077 17.31 18.4799 17.31V15.81ZM8.08547 7.5909L14.8055 3.2709L13.9943 2.00913L7.27433 6.32913L8.08547 7.5909ZM13.8079 3.10047L17.1679 7.42047L18.3519 6.49956L14.9919 2.17956L13.8079 3.10047ZM3.3599 7.71002H19.6799V6.21002H3.3599V7.71002ZM19.6799 20.61H3.3599V22.11H19.6799V20.61ZM3.1499 20.4V7.92002H1.6499V20.4H3.1499ZM3.3599 20.61C3.24392 20.61 3.1499 20.516 3.1499 20.4H1.6499C1.6499 21.3444 2.41549 22.11 3.3599 22.11V20.61ZM19.8899 20.4C19.8899 20.516 19.7959 20.61 19.6799 20.61V22.11C20.6243 22.11 21.3899 21.3444 21.3899 20.4H19.8899ZM19.6799 7.71002C19.7959 7.71002 19.8899 7.80403 19.8899 7.92002H21.3899C21.3899 6.97561 20.6243 6.21002 19.6799 6.21002V7.71002ZM3.3599 6.21002C2.4155 6.21002 1.6499 6.97561 1.6499 7.92002H3.1499C3.1499 7.80404 3.24392 7.71002 3.3599 7.71002V6.21002ZM19.8899 17.28V20.4H21.3899V17.28H19.8899ZM19.8899 7.92002V10.44H21.3899V7.92002H19.8899Z" fill="white"/>
</svg>
